<?xml version="1.0" encoding="UTF-8"?>
<svg version="1.1" xmlns="http://www.w3.org/2000/svg" width="651" height="376">
<path d="M0 0 C-0.66 3.96 -1.32 7.92 -2 12 C-2.99 12.33 -3.98 12.66 -5 13 C-4.2575 13.78375 -3.515 14.5675 -2.75 15.375 C3.11460391 22.55955749 4.7950407 30.29402133 4.515625 39.46484375 C3.018966 49.72602856 -3.37426339 58.68018427 -11.5625 64.8125 C-13.69169191 66.26186123 -15.44581965 67.17445117 -17.875 68.125 C-18.57625 68.41375 -19.2775 68.7025 -20 69 C-20.495 70.485 -20.495 70.485 -21 72 C-20.443125 72.226875 -19.88625 72.45375 -19.3125 72.6875 C-15.3584079 74.93171444 -12.69736889 77.63696081 -10.625 81.6875 C-9.50584683 87.61901181 -9.95774669 92.87540672 -12.625 98.3125 C-17.95395061 104.34262832 -22.7258316 106.86038568 -30.80859375 107.90234375 C-38.52632835 108.13850454 -44.88286469 106.39459608 -50.75 101.3125 C-51.85384919 100.22884318 -52.94565032 99.13187539 -54 98 C-53.19095897 93.20719998 -50.74015409 91.86479887 -47 89 C-44.07909997 90.30936898 -42.24380538 91.75619462 -40 94 C-35.10681104 95.63106299 -30.76913115 95.75282177 -26.0625 93.75 C-23.93520054 92.17717592 -23.93520054 92.17717592 -23.0625 90.125 C-22.97237362 87.06070313 -23.32562903 85.61201871 -25 83 C-29.48682812 80.75658594 -33.99352024 79.77323694 -38.87792969 78.67407227 C-45.8119724 77.08415658 -52.10709446 75.52870682 -57 70 C-58.73105765 67.12827853 -59.01422678 65.79015496 -59.25 62.3125 C-59.70610639 57.68258986 -61.92804727 54.86090097 -64.56640625 51.140625 C-68.77578035 44.85523806 -68.72967287 37.29672868 -68 30 C-65.81886048 20.68058569 -61.49387027 13.21331595 -53.625 7.6875 C-43.64792842 1.56822943 -33.69029052 -0.26033155 -22.19140625 2.4296875 C-20.7528088 2.80408185 -19.32508736 3.223707 -17.9140625 3.69140625 C-14.98358114 4.16387161 -13.40552927 2.43765547 -11.015625 0.92578125 C-7.39244749 -0.73835261 -3.92070489 -0.24127415 0 0 Z M-51 21 C-55.27398307 27.3376741 -57.34889147 33.36877141 -56 41 C-53.25903055 49.32496571 -47.62097204 54.12023241 -40 58 C-34.15223227 60.1929129 -27.99884222 59.18868101 -22.27734375 57.10546875 C-16.9613031 54.52495502 -13.16357229 50.8180817 -10 45.875 C-7.95304109 39.90919213 -7.71520716 32.5174773 -9.87890625 26.59375 C-13.17639111 20.93470007 -17.94259459 16.49473154 -23.8125 13.625 C-33.78360202 11.66988196 -44.05661357 12.82440696 -51 21 Z M-24 69 C-23.34 69.66 -22.68 70.32 -22 71 C-22 70.34 -22 69.68 -22 69 C-22.66 69 -23.32 69 -24 69 Z " fill="#FDFCFD" transform="translate(404,148)"/>
<path d="M0 0 C9.53982004 6.13624788 16.04676553 13.46447848 18.7265625 24.54296875 C20.64106702 34.69934732 18.96069474 41.7698025 13.27734375 50.46484375 C7.73721627 57.61492281 0.78155546 61.63010651 -7.72265625 64.46484375 C-19.60963634 65.23870265 -28.88487631 64.8431787 -38.72265625 57.46484375 C-39.05265625 66.37484375 -39.38265625 75.28484375 -39.72265625 84.46484375 C-43.35265625 84.46484375 -46.98265625 84.46484375 -50.72265625 84.46484375 C-50.815715 76.53654443 -50.88660139 68.60847682 -50.92990494 60.67976475 C-50.95069825 56.99733117 -50.97886213 53.31527378 -51.02441406 49.63305664 C-51.06817033 46.07334177 -51.0918553 42.51398661 -51.10216522 38.95402336 C-51.11305267 36.94835916 -51.14423049 34.94283781 -51.17584229 32.93739319 C-51.1784235 22.33819665 -48.96094538 15.11064923 -41.71484375 7.3203125 C-30.74359708 -2.89800548 -13.94045356 -6.69618368 0 0 Z M-32.66015625 14.96484375 C-33.34078125 15.78984375 -34.02140625 16.61484375 -34.72265625 17.46484375 C-35.233125 18.07972656 -35.74359375 18.69460937 -36.26953125 19.328125 C-39.50947879 24.09224141 -40.19136146 30.32614464 -39.41015625 35.96484375 C-37.72249692 42.04474466 -33.45405321 46.47895552 -28.72265625 50.46484375 C-23.00970725 53.62074902 -16.83781875 54.4473566 -10.46484375 52.92578125 C-3.17060922 50.73510355 1.39167836 47.33548819 5.26171875 40.734375 C7.78997986 35.08468384 7.85747467 29.53142559 6.08984375 23.65234375 C3.31166567 16.59527532 -1.10147711 12.88179764 -7.72265625 9.46484375 C-10.22683214 8.56355737 -10.22683214 8.56355737 -12.72265625 8.46484375 C-13.77453125 8.36171875 -14.82640625 8.25859375 -15.91015625 8.15234375 C-22.33622286 8.67907052 -27.7421358 10.77929443 -32.66015625 14.96484375 Z " fill="#FDFCFD" transform="translate(259.72265625,152.53515625)"/>
<path d="M0 0 C0 5.94 0 11.88 0 18 C1.4025 17.195625 2.805 16.39125 4.25 15.5625 C11.58484184 11.35575247 19.4535775 10.68093677 27.7265625 12.6484375 C36.39013682 15.78663625 43.54964207 21.89528312 48 30 C50.61211898 37.31393314 51.15207482 44.64877484 51.09765625 52.33984375 C51.0962413 53.10680069 51.09482635 53.87375763 51.09336853 54.66395569 C51.08781766 57.0885119 51.07527463 59.51297219 51.0625 61.9375 C51.05747864 63.59179553 51.05291685 65.24609253 51.04882812 66.90039062 C51.03786438 70.93363012 51.02063424 74.96679886 51 79 C47.04 79 43.08 79 39 79 C37.50276917 76.00553835 37.9400909 72.96060303 38.0078125 69.68359375 C38.02535079 68.18164764 38.04225691 66.67969404 38.05859375 65.17773438 C38.08936037 62.81676294 38.12463021 60.45617075 38.17138672 58.09545898 C38.62592953 43.58674322 38.62592953 43.58674322 32.6875 30.625 C28.46235958 26.49811866 24.99175716 24.84140394 19.125 24.5 C13.69172522 24.68001814 10.05728863 26.44048057 6 30 C0.4352206 36.58987034 -0.31337081 44.15383761 -0.1953125 52.4375 C-0.1924826 53.20304199 -0.18965271 53.96858398 -0.18673706 54.75732422 C-0.17565648 57.17171724 -0.15057601 59.58572154 -0.125 62 C-0.11495448 63.64973418 -0.1058314 65.29947424 -0.09765625 66.94921875 C-0.07575712 70.96629268 -0.04131325 74.98308073 0 79 C-4.29 79 -8.58 79 -13 79 C-13 52.93 -13 26.86 -13 0 C-2 -1 -2 -1 0 0 Z " fill="#FEFDFD" transform="translate(422,138)"/>
<path d="M0 0 C1.50433594 0.01353516 1.50433594 0.01353516 3.0390625 0.02734375 C3.80992187 0.03894531 4.58078125 0.05054688 5.375 0.0625 C5.39481934 1.08085937 5.41463867 2.09921875 5.43505859 3.1484375 C5.51163117 6.95807949 5.60026507 10.76736499 5.69238281 14.57666016 C5.73046062 16.21949175 5.76534888 17.86240071 5.796875 19.50537109 C5.84299015 21.8788604 5.90090261 24.2518267 5.9609375 26.625 C5.97248871 27.34929199 5.98403992 28.07358398 5.99594116 28.81982422 C6.21168779 36.4218037 7.51975649 42.9587653 12.375 49.0625 C17.38234785 53.58132611 21.22596314 54.42046982 27.8046875 54.34375 C32.8529321 53.79135849 36.00272723 51.39665408 39.625 47.875 C45.51138932 38.41473146 44.91684493 28.24179949 45.0625 17.5 C45.09572269 15.80661498 45.13021682 14.1132544 45.16601562 12.41992188 C45.25035322 8.30091713 45.31742741 4.18196223 45.375 0.0625 C47.18742052 0.03562721 48.99995233 0.01616285 50.8125 0 C51.82183594 -0.01160156 52.83117187 -0.02320313 53.87109375 -0.03515625 C56.375 0.0625 56.375 0.0625 57.375 1.0625 C57.48853963 3.46667774 57.53918398 5.84095246 57.54296875 8.24609375 C57.54796135 9.34039452 57.54796135 9.34039452 57.55305481 10.45680237 C57.55813201 12.00952524 57.56046289 13.56225907 57.56030273 15.11499023 C57.56246224 17.45901388 57.58053282 19.80254583 57.59960938 22.14648438 C57.65240701 35.7476455 56.80857556 48.50163371 47.0625 58.9375 C39.81937902 65.65759474 31.84178054 67.56093169 22.15234375 67.4609375 C13.9150176 66.59205718 7.52205108 62.68878066 1.875 56.75 C-7.64268165 44.93699388 -6.80938167 31.44103339 -7.1875 17 C-7.23077992 15.45116234 -7.27439692 13.90233406 -7.31835938 12.35351562 C-7.42446066 8.58994068 -7.52599536 4.82626805 -7.625 1.0625 C-4.98041621 -0.25979189 -2.94738699 -0.03427194 0 0 Z " fill="#FDFCFD" transform="translate(147.625,149.9375)"/>
<path d="M0 0 C0 2.64 0 5.28 0 8 C9.24 8 18.48 8 28 8 C28 11.63 28 15.26 28 19 C18.76 19 9.52 19 0 19 C0.0825 23.455 0.165 27.91 0.25 32.5 C0.26579102 33.88896484 0.28158203 35.27792969 0.29785156 36.70898438 C0.5276796 45.09407902 1.15837182 51.35045323 7.5 57.375 C11.17271338 59.76226369 14.04527439 61.21394249 18.4375 61.625 C19.17871094 61.69976562 19.91992188 61.77453125 20.68359375 61.8515625 C23.11790474 62.00755545 25.56069604 62 28 62 C28 65.96 28 69.92 28 74 C18.8743472 74.43803133 11.21190533 74.46429035 3 70 C2.17113281 69.56945312 1.34226562 69.13890625 0.48828125 68.6953125 C-2.45096979 66.69274586 -4.12215821 64.57578261 -6.1875 61.6875 C-6.86167969 60.76324219 -7.53585937 59.83898437 -8.23046875 58.88671875 C-12.331811 52.19600811 -12.26942803 46.1068463 -12.1953125 38.4765625 C-12.1924826 37.37524994 -12.18965271 36.27393738 -12.18673706 35.13925171 C-12.17557478 31.63438892 -12.15047711 28.12978508 -12.125 24.625 C-12.11496511 22.24349328 -12.10584015 19.86198255 -12.09765625 17.48046875 C-12.07564837 11.65355803 -12.04220999 5.82679752 -12 0 C-10.37585622 -0.19477739 -8.75063577 -0.38059458 -7.125 -0.5625 C-6.22007812 -0.66691406 -5.31515625 -0.77132812 -4.3828125 -0.87890625 C-2 -1 -2 -1 0 0 Z " fill="#FEFDFD" transform="translate(489,143)"/>
<path d="M0 0 C0 3.63 0 7.26 0 11 C-3 12 -3 12 -6.125 11.875 C-11.87813506 12.060585 -16.70602835 12.94569703 -21.09375 16.875 C-24.86916058 21.08365442 -27.08614267 24.21659475 -27.18945312 29.99658203 C-27.20617065 30.79395782 -27.22288818 31.59133362 -27.2401123 32.41287231 C-27.25368774 33.26920258 -27.26726318 34.12553284 -27.28125 35.0078125 C-27.29965942 35.88903778 -27.31806885 36.77026306 -27.33703613 37.67819214 C-27.41577833 41.45184111 -27.48365404 45.22566669 -27.55224609 48.99951172 C-27.6038297 51.75237243 -27.66111817 54.50507287 -27.71875 57.2578125 C-27.73232544 58.11819122 -27.74590088 58.97856995 -27.7598877 59.86502075 C-27.88715199 65.88715199 -27.88715199 65.88715199 -29 67 C-31.01964199 67.07244053 -33.04167124 67.08377188 -35.0625 67.0625 C-36.16722656 67.05347656 -37.27195312 67.04445313 -38.41015625 67.03515625 C-39.26480469 67.02355469 -40.11945313 67.01195312 -41 67 C-40.93085519 61.02222123 -40.84275847 55.0451241 -40.73754883 49.06787109 C-40.70441787 47.03702391 -40.67634957 45.00608726 -40.65356445 42.97509766 C-40.61980023 40.04551282 -40.56747401 37.1167391 -40.51171875 34.1875 C-40.50532883 33.28821777 -40.4989389 32.38893555 -40.49235535 31.46240234 C-40.27115646 21.84871963 -37.30177005 15.37056578 -30.671875 8.33984375 C-21.28620515 0.12052176 -11.94370174 -1.45261237 0 0 Z " fill="#FDFCFD" transform="translate(321,150)"/>
<path d="M0 0 C3.63 0 7.26 0 11 0 C11 22.11 11 44.22 11 67 C7.04 67 3.08 67 -1 67 C-1.02312635 58.4119428 -1.04091658 49.82389851 -1.05181217 41.23581791 C-1.05704036 37.248428 -1.06413684 33.26105933 -1.07543945 29.27368164 C-1.08627061 25.42874886 -1.09227732 21.58383655 -1.09487724 17.73888969 C-1.09673108 16.26881017 -1.10035091 14.79873182 -1.10573006 13.32866096 C-1.11294355 11.27645533 -1.11399081 9.22433533 -1.11352539 7.17211914 C-1.115746 6.00185684 -1.11796661 4.83159454 -1.12025452 3.62586975 C-1 1 -1 1 0 0 Z " fill="#FEFDFD" transform="translate(323,150)"/>
<path d="" fill="#000000" transform="translate(0,0)"/>
<path d="" fill="#000000" transform="translate(0,0)"/>
<path d="" fill="#000000" transform="translate(0,0)"/>
<path d="" fill="#000000" transform="translate(0,0)"/>
<path d="" fill="#000000" transform="translate(0,0)"/>
<path d="" fill="#000000" transform="translate(0,0)"/>
<path d="" fill="#000000" transform="translate(0,0)"/>
<path d="" fill="#000000" transform="translate(0,0)"/>
<path d="" fill="#000000" transform="translate(0,0)"/>
<path d="" fill="#000000" transform="translate(0,0)"/>
<path d="" fill="#000000" transform="translate(0,0)"/>
<path d="" fill="#000000" transform="translate(0,0)"/>
<path d="" fill="#000000" transform="translate(0,0)"/>
<path d="" fill="#000000" transform="translate(0,0)"/>
<path d="" fill="#000000" transform="translate(0,0)"/>
<path d="" fill="#000000" transform="translate(0,0)"/>
<path d="" fill="#000000" transform="translate(0,0)"/>
<path d="" fill="#000000" transform="translate(0,0)"/>
<path d="" fill="#000000" transform="translate(0,0)"/>
<path d="" fill="#000000" transform="translate(0,0)"/>
<path d="" fill="#000000" transform="translate(0,0)"/>
<path d="" fill="#000000" transform="translate(0,0)"/>
<path d="" fill="#000000" transform="translate(0,0)"/>
<path d="" fill="#000000" transform="translate(0,0)"/>
<path d="" fill="#000000" transform="translate(0,0)"/>
<path d="" fill="#000000" transform="translate(0,0)"/>
<path d="" fill="#000000" transform="translate(0,0)"/>
<path d="" fill="#000000" transform="translate(0,0)"/>
<path d="" fill="#000000" transform="translate(0,0)"/>
<path d="" fill="#000000" transform="translate(0,0)"/>
<path d="" fill="#000000" transform="translate(0,0)"/>
<path d="" fill="#000000" transform="translate(0,0)"/>
<path d="" fill="#000000" transform="translate(0,0)"/>
<path d="" fill="#000000" transform="translate(0,0)"/>
<path d="" fill="#000000" transform="translate(0,0)"/>
<path d="" fill="#000000" transform="translate(0,0)"/>
<path d="" fill="#000000" transform="translate(0,0)"/>
<path d="" fill="#000000" transform="translate(0,0)"/>
<path d="" fill="#000000" transform="translate(0,0)"/>
<path d="" fill="#000000" transform="translate(0,0)"/>
<path d="" fill="#000000" transform="translate(0,0)"/>
<path d="" fill="#000000" transform="translate(0,0)"/>
<path d="" fill="#000000" transform="translate(0,0)"/>
<path d="" fill="#000000" transform="translate(0,0)"/>
<path d="" fill="#000000" transform="translate(0,0)"/>
<path d="" fill="#000000" transform="translate(0,0)"/>
<path d="" fill="#000000" transform="translate(0,0)"/>
<path d="" fill="#000000" transform="translate(0,0)"/>
<path d="" fill="#000000" transform="translate(0,0)"/>
<path d="" fill="#000000" transform="translate(0,0)"/>
<path d="" fill="#000000" transform="translate(0,0)"/>
<path d="" fill="#000000" transform="translate(0,0)"/>
<path d="" fill="#000000" transform="translate(0,0)"/>
<path d="" fill="#000000" transform="translate(0,0)"/>
<path d="" fill="#000000" transform="translate(0,0)"/>
<path d="" fill="#000000" transform="translate(0,0)"/>
<path d="" fill="#000000" transform="translate(0,0)"/>
<path d="" fill="#000000" transform="translate(0,0)"/>
<path d="" fill="#000000" transform="translate(0,0)"/>
<path d="" fill="#000000" transform="translate(0,0)"/>
<path d="" fill="#000000" transform="translate(0,0)"/>
<path d="" fill="#000000" transform="translate(0,0)"/>
<path d="" fill="#000000" transform="translate(0,0)"/>
<path d="" fill="#000000" transform="translate(0,0)"/>
<path d="" fill="#000000" transform="translate(0,0)"/>
<path d="" fill="#000000" transform="translate(0,0)"/>
<path d="" fill="#000000" transform="translate(0,0)"/>
<path d="" fill="#000000" transform="translate(0,0)"/>
<path d="" fill="#000000" transform="translate(0,0)"/>
<path d="" fill="#000000" transform="translate(0,0)"/>
<path d="" fill="#000000" transform="translate(0,0)"/>
</svg>
