<svg xmlns="http://www.w3.org/2000/svg" xmlns:xlink="http://www.w3.org/1999/xlink" width="810" zoomAndPan="magnify" viewBox="0 0 607.5 759.749977" height="1013" preserveAspectRatio="xMidYMid meet" version="1.0"><defs><g/><clipPath id="1ac32b628f"><rect x="0" width="540" y="0" height="195"/></clipPath></defs><g transform="matrix(1, 0, 0, 1, 35, 281)"><g clip-path="url(#1ac32b628f)"><g fill="#fefefe" fill-opacity="1"><g transform="translate(1.390611, 116.117912)"><g><path d="M 89.796875 -86.90625 L 89.796875 -43.605469 C 89.621094 -30.152344 85.300781 -18.664062 76.832031 -9.132812 C 72.558594 -4.320312 67.820312 -0.695312 62.613281 1.742188 C 57.363281 4.203125 51.691406 5.429688 45.601562 5.429688 C 39.488281 5.429688 33.800781 4.195312 28.539062 1.726562 C 23.320312 -0.722656 18.574219 -4.367188 14.300781 -9.199219 C 5.835938 -18.730469 1.535156 -30.222656 1.402344 -43.679688 L 1.402344 -91.550781 L 16.800781 -91.550781 L 16.800781 -43.726562 C 16.910156 -34.511719 19.824219 -26.667969 25.554688 -20.191406 C 28.375 -17.003906 31.449219 -14.628906 34.78125 -13.066406 C 38.066406 -11.523438 41.65625 -10.753906 45.539062 -10.753906 C 49.429688 -10.753906 53.027344 -11.519531 56.328125 -13.054688 C 59.671875 -14.613281 62.765625 -16.976562 65.605469 -20.152344 C 71.324219 -26.621094 74.257812 -34.441406 74.402344 -43.617188 L 74.402344 -91.550781 L 89.796875 -91.550781 Z M 80.507812 -86.90625 L 85.152344 -86.90625 L 85.152344 -82.261719 L 79.046875 -82.261719 L 79.046875 -86.90625 L 83.691406 -86.90625 L 83.691406 -43.472656 C 83.511719 -32.003906 79.789062 -22.167969 72.527344 -13.957031 C 68.835938 -9.835938 64.742188 -6.726562 60.246094 -4.632812 C 55.703125 -2.519531 50.800781 -1.464844 45.539062 -1.464844 C 40.273438 -1.464844 35.371094 -2.527344 30.835938 -4.65625 C 26.347656 -6.761719 22.265625 -9.890625 18.59375 -14.039062 C 11.339844 -22.238281 7.644531 -32.136719 7.511719 -43.726562 L 7.511719 -86.90625 L 12.15625 -86.90625 L 12.15625 -82.261719 L 6.046875 -82.261719 L 6.046875 -86.90625 L 10.691406 -86.90625 L 10.691406 -43.773438 C 10.800781 -32.632812 14.324219 -23.160156 21.261719 -15.355469 C 24.6875 -11.480469 28.429688 -8.589844 32.484375 -6.683594 C 36.496094 -4.800781 40.867188 -3.859375 45.601562 -3.859375 C 50.3125 -3.859375 54.671875 -4.796875 58.675781 -6.671875 C 62.722656 -8.566406 66.460938 -11.445312 69.886719 -15.300781 C 76.824219 -23.109375 80.363281 -32.542969 80.507812 -43.605469 Z M 80.507812 -86.90625 "/></g></g></g><g fill="#fefefe" fill-opacity="1"><g transform="translate(96.184322, 116.117912)"><g><path d="M 74.472656 -19.65625 C 81.035156 -26.292969 84.320312 -34.234375 84.320312 -43.484375 C 84.320312 -52.734375 81.035156 -60.675781 74.472656 -67.3125 C 67.863281 -73.851562 59.929688 -77.121094 50.679688 -77.121094 C 41.429688 -77.121094 33.488281 -73.839844 26.851562 -67.277344 C 20.3125 -60.664062 17.042969 -52.734375 17.042969 -43.484375 C 17.042969 -34.234375 20.324219 -26.292969 26.890625 -19.65625 C 33.5 -13.117188 41.429688 -9.847656 50.679688 -9.847656 C 59.929688 -9.847656 67.875 -13.128906 74.507812 -19.691406 Z M 81.042969 -13.085938 C 72.597656 -4.734375 62.476562 -0.554688 50.679688 -0.554688 C 38.886719 -0.554688 28.753906 -4.746094 20.285156 -13.121094 C 11.929688 -21.566406 7.753906 -31.6875 7.753906 -43.484375 C 7.753906 -55.28125 11.941406 -65.414062 20.320312 -73.878906 C 28.765625 -82.234375 38.886719 -86.410156 50.679688 -86.410156 C 62.476562 -86.410156 72.609375 -82.222656 81.078125 -73.84375 C 89.433594 -65.402344 93.609375 -55.28125 93.609375 -43.484375 C 93.609375 -31.6875 89.433594 -21.566406 81.078125 -13.121094 Z M 17.042969 -20.503906 L 17.042969 34.761719 L 1.464844 34.761719 L 1.464844 -43.484375 C 1.417969 -57.058594 6.207031 -68.65625 15.828125 -78.277344 C 25.441406 -87.894531 37.039062 -92.703125 50.621094 -92.703125 C 64.199219 -92.703125 75.796875 -87.894531 85.414062 -78.277344 C 94.980469 -68.710938 99.808594 -57.121094 99.898438 -43.515625 C 99.898438 -29.914062 95.089844 -18.304688 85.476562 -8.691406 C 75.859375 0.925781 64.261719 5.734375 50.679688 5.734375 C 37.101562 5.734375 25.503906 0.925781 15.886719 -8.691406 C 13.011719 -11.566406 10.53125 -14.6875 8.449219 -18.058594 L 12.398438 -20.503906 Z M 7.753906 -20.503906 L 7.753906 -36.84375 L 16.347656 -22.945312 C 18.054688 -20.1875 20.089844 -17.625 22.457031 -15.257812 C 30.257812 -7.457031 39.667969 -3.554688 50.679688 -3.554688 C 61.695312 -3.554688 71.105469 -7.457031 78.90625 -15.257812 C 86.707031 -23.0625 90.609375 -32.460938 90.609375 -43.453125 C 90.535156 -54.519531 86.617188 -63.9375 78.84375 -71.707031 C 71.042969 -79.511719 61.636719 -83.410156 50.621094 -83.410156 C 39.605469 -83.410156 30.199219 -79.511719 22.394531 -71.707031 C 14.597656 -63.910156 10.71875 -54.503906 10.753906 -43.484375 L 10.753906 30.117188 L 6.109375 30.117188 L 6.109375 25.472656 L 12.398438 25.472656 L 12.398438 30.117188 L 7.753906 30.117188 Z M 7.753906 -20.503906 "/></g></g></g><g fill="#fefefe" fill-opacity="1"><g transform="translate(198.961197, 116.117912)"><g><path d="M 56.957031 -88.175781 L 56.957031 -76.410156 L 51.867188 -76.902344 C 50.765625 -77.007812 49.625 -77.0625 48.441406 -77.0625 C 39.917969 -77.0625 32.578125 -74.019531 26.429688 -67.941406 C 20.414062 -61.925781 17.40625 -54.597656 17.40625 -45.964844 L 17.40625 4.585938 L 1.464844 4.585938 L 1.464844 -45.964844 C 1.375 -58.96875 5.941406 -70.085938 15.160156 -79.304688 C 24.382812 -88.4375 35.457031 -93.003906 48.382812 -93.003906 C 49.902344 -93.003906 51.363281 -92.9375 52.761719 -92.800781 L 56.957031 -92.394531 Z M 47.667969 -88.175781 L 52.3125 -88.175781 L 51.867188 -83.554688 C 50.765625 -83.660156 49.605469 -83.714844 48.382812 -83.714844 C 38.003906 -83.714844 29.121094 -80.054688 21.730469 -72.738281 C 14.339844 -65.347656 10.679688 -56.421875 10.753906 -45.964844 L 10.753906 -0.0585938 L 6.109375 -0.0585938 L 6.109375 -4.707031 L 12.761719 -4.707031 L 12.761719 -0.0585938 L 8.117188 -0.0585938 L 8.117188 -45.964844 C 8.117188 -57.164062 12.042969 -66.691406 19.898438 -74.546875 C 27.859375 -82.417969 37.375 -86.351562 48.441406 -86.351562 C 49.921875 -86.351562 51.363281 -86.285156 52.761719 -86.148438 L 52.3125 -81.523438 L 47.667969 -81.523438 Z M 47.667969 -88.175781 "/></g></g></g><g fill="#fefefe" fill-opacity="1"><g transform="translate(257.89115, 116.117912)"><g><path d="M 1.402344 -91.433594 L 17.042969 -91.433594 L 17.042969 4.644531 L 1.402344 4.644531 Z M 1.402344 -91.433594 "/></g></g></g><g fill="#fefefe" fill-opacity="1"><g transform="translate(279.929208, 116.117912)"><g><path d="M 34.605469 41.351562 C 37.226562 44.277344 41.394531 45.925781 47.105469 46.289062 C 52.78125 46.621094 57.210938 45.492188 60.390625 42.90625 C 61.550781 41.921875 62.453125 40.785156 63.097656 39.5 C 63.75 38.199219 64.132812 36.714844 64.25 35.050781 C 64.386719 33.40625 64.230469 31.910156 63.792969 30.570312 C 63.355469 29.246094 62.628906 28.007812 61.601562 26.855469 C 59.964844 25.035156 57.582031 23.570312 54.453125 22.460938 L 54.320312 22.414062 C 53.707031 22.171875 53.023438 21.941406 52.269531 21.710938 C 51.488281 21.476562 50.636719 21.25 49.71875 21.027344 L 49.660156 21.015625 L 49.605469 21 C 49.09375 20.863281 48.433594 20.714844 47.625 20.550781 L 44.449219 19.917969 L 42.257812 19.503906 L 39.570312 18.941406 L 37.007812 18.390625 C 35.957031 18.171875 34.945312 17.929688 33.980469 17.660156 C 33.0625 17.402344 32.195312 17.144531 31.378906 16.886719 C 27.003906 15.414062 23.300781 13.511719 20.269531 11.179688 C 15.703125 7.667969 12.960938 3.789062 12.03125 -0.460938 L 12.023438 -0.511719 L 12.011719 -0.566406 C 11.59375 -2.714844 11.652344 -4.796875 12.1875 -6.816406 C 12.710938 -8.792969 13.679688 -10.644531 15.089844 -12.371094 L 18.6875 -9.433594 L 15.582031 -5.980469 L 14.976562 -6.527344 L 14.011719 -7.417969 L 13.953125 -7.480469 C 4.175781 -17.257812 -0.714844 -29.078125 -0.714844 -42.941406 C -0.625 -56.8125 4.304688 -68.617188 14.082031 -78.347656 C 23.808594 -88.117188 35.605469 -93.003906 49.472656 -93.003906 C 59.59375 -93.003906 68.589844 -90.410156 76.460938 -85.222656 L 73.90625 -81.34375 L 70.003906 -83.867188 C 71 -85.40625 72.003906 -86.773438 73.019531 -87.972656 C 74.089844 -89.238281 75.179688 -90.324219 76.285156 -91.226562 L 76.339844 -91.273438 L 76.398438 -91.316406 C 78.300781 -92.777344 80.347656 -93.78125 82.546875 -94.332031 C 84.734375 -94.878906 87.019531 -94.960938 89.398438 -94.578125 L 93.996094 -93.839844 L 91.457031 -78.304688 L 86.820312 -79.128906 C 86.632812 -79.164062 86.484375 -79.160156 86.367188 -79.128906 C 86.210938 -79.082031 86.03125 -78.964844 85.820312 -78.777344 C 85.039062 -78.082031 84.101562 -76.835938 83.007812 -75.050781 L 79.046875 -77.472656 L 82.046875 -81.019531 C 83.226562 -80.019531 84.21875 -79.09375 85.023438 -78.242188 L 81.644531 -75.054688 L 84.921875 -78.347656 C 94.707031 -68.609375 99.597656 -56.804688 99.597656 -42.941406 C 99.597656 -29.117188 94.6875 -17.296875 84.871094 -7.480469 C 75.09375 2.296875 63.273438 7.183594 49.410156 7.183594 C 38.707031 7.183594 29.203125 4.238281 20.898438 -1.65625 L 23.585938 -5.441406 L 27.453125 -2.867188 C 27.417969 -2.820312 27.398438 -2.78125 27.386719 -2.753906 C 27.394531 -2.777344 27.40625 -2.808594 27.414062 -2.847656 C 27.46875 -3.046875 27.472656 -3.261719 27.429688 -3.492188 C 27.417969 -3.570312 27.402344 -3.628906 27.386719 -3.671875 C 27.386719 -3.675781 27.382812 -3.679688 27.382812 -3.679688 C 27.386719 -3.671875 27.390625 -3.664062 27.398438 -3.648438 C 27.464844 -3.527344 27.570312 -3.371094 27.722656 -3.183594 C 28.191406 -2.605469 28.910156 -1.941406 29.878906 -1.191406 C 31.570312 0.113281 33.777344 1.191406 36.507812 2.03125 C 37.121094 2.210938 37.785156 2.398438 38.496094 2.59375 C 39.199219 2.78125 39.949219 2.972656 40.75 3.160156 C 41.214844 3.269531 41.824219 3.398438 42.574219 3.554688 C 43.339844 3.710938 44.238281 3.890625 45.269531 4.085938 L 45.320312 4.097656 L 47.609375 4.59375 L 50.480469 5.191406 L 53.492188 5.816406 L 53.601562 5.84375 C 54.734375 6.140625 55.808594 6.433594 56.820312 6.730469 C 57.90625 7.046875 58.929688 7.386719 59.894531 7.753906 C 65.503906 9.824219 69.972656 12.714844 73.308594 16.433594 C 75.777344 19.21875 77.566406 22.273438 78.675781 25.59375 C 79.777344 28.898438 80.195312 32.433594 79.929688 36.191406 C 79.640625 39.988281 78.699219 43.453125 77.109375 46.585938 C 75.511719 49.730469 73.28125 52.503906 70.417969 54.90625 C 64.808594 59.660156 57.582031 62.039062 48.746094 62.039062 C 43.789062 62.039062 39.113281 61.214844 34.714844 59.566406 C 29.898438 57.769531 25.984375 55.199219 22.972656 51.851562 C 22.574219 51.398438 22.199219 50.953125 21.855469 50.507812 L 18.28125 45.914062 L 30.703125 35.332031 L 33.539062 39.972656 C 33.816406 40.429688 34.148438 40.863281 34.535156 41.273438 Z M 27.6875 47.550781 L 31.144531 44.453125 L 27.757812 47.628906 C 26.933594 46.75 26.21875 45.816406 25.609375 44.816406 L 29.574219 42.394531 L 32.585938 45.929688 L 27.6875 50.105469 L 24.675781 46.570312 L 28.339844 43.714844 L 29.1875 44.804688 C 29.410156 45.089844 29.640625 45.367188 29.882812 45.640625 C 31.875 47.855469 34.574219 49.597656 37.980469 50.867188 C 41.324219 52.121094 44.914062 52.75 48.746094 52.75 C 55.3125 52.75 60.546875 51.09375 64.449219 47.789062 C 66.34375 46.199219 67.800781 44.394531 68.824219 42.378906 C 69.855469 40.347656 70.46875 38.066406 70.664062 35.535156 C 70.839844 33.003906 70.574219 30.671875 69.859375 28.53125 C 69.152344 26.410156 68 24.445312 66.394531 22.636719 C 64.085938 20.0625 60.816406 17.996094 56.585938 16.4375 C 55.855469 16.15625 55.066406 15.894531 54.21875 15.648438 C 53.296875 15.378906 52.3125 15.109375 51.269531 14.839844 L 52.433594 10.34375 L 51.488281 14.890625 L 48.585938 14.285156 L 45.648438 13.671875 L 43.410156 13.1875 L 44.390625 8.648438 L 43.515625 13.210938 C 42.445312 13.003906 41.511719 12.820312 40.707031 12.65625 C 39.882812 12.484375 39.179688 12.332031 38.597656 12.199219 C 37.707031 11.988281 36.863281 11.773438 36.074219 11.558594 C 35.292969 11.347656 34.527344 11.132812 33.769531 10.910156 C 29.964844 9.734375 26.773438 8.148438 24.191406 6.152344 C 22.65625 4.964844 21.429688 3.804688 20.507812 2.671875 C 19.320312 1.207031 18.582031 -0.292969 18.289062 -1.832031 C 17.90625 -3.949219 18.382812 -6.011719 19.722656 -8.019531 L 22.375 -12 L 26.273438 -9.230469 C 32.96875 -4.480469 40.679688 -2.105469 49.410156 -2.105469 C 60.707031 -2.105469 70.335938 -6.085938 78.300781 -14.050781 C 86.304688 -22.054688 90.304688 -31.683594 90.304688 -42.941406 C 90.304688 -54.234375 86.328125 -63.839844 78.367188 -71.761719 L 78.316406 -71.8125 L 78.269531 -71.863281 C 77.703125 -72.464844 76.960938 -73.152344 76.046875 -73.925781 L 73.007812 -76.5 L 75.082031 -79.894531 C 76.652344 -82.460938 78.171875 -84.40625 79.648438 -85.722656 C 80.890625 -86.824219 82.25 -87.597656 83.726562 -88.035156 C 85.246094 -88.484375 86.820312 -88.566406 88.445312 -88.277344 L 87.632812 -83.703125 L 83.050781 -84.453125 L 84.078125 -90.742188 L 88.660156 -89.992188 L 87.921875 -85.40625 C 86.796875 -85.585938 85.753906 -85.558594 84.796875 -85.320312 C 83.851562 -85.082031 82.9375 -84.625 82.054688 -83.949219 L 79.226562 -87.632812 L 82.167969 -84.039062 C 81.5 -83.492188 80.816406 -82.804688 80.113281 -81.972656 C 79.351562 -81.074219 78.582031 -80.023438 77.804688 -78.820312 L 75.261719 -74.886719 L 71.347656 -77.464844 C 65.027344 -81.632812 57.734375 -83.714844 49.472656 -83.714844 C 38.179688 -83.714844 28.566406 -79.730469 20.632812 -71.761719 C 12.667969 -63.832031 8.648438 -54.222656 8.574219 -42.941406 C 8.574219 -31.644531 12.558594 -22.011719 20.519531 -14.050781 L 17.238281 -10.765625 L 20.398438 -14.167969 L 21.191406 -13.429688 L 25.085938 -9.925781 L 22.285156 -6.496094 C 21.722656 -5.804688 21.347656 -5.117188 21.167969 -4.433594 C 20.996094 -3.789062 20.984375 -3.09375 21.128906 -2.339844 L 16.570312 -1.453125 L 21.109375 -2.441406 C 21.554688 -0.402344 23.164062 1.683594 25.933594 3.816406 C 28.144531 5.519531 30.894531 6.921875 34.179688 8.027344 C 34.894531 8.253906 35.660156 8.480469 36.476562 8.710938 C 37.246094 8.925781 38.070312 9.125 38.953125 9.308594 L 41.472656 9.847656 L 43.984375 10.375 L 46.269531 10.808594 L 49.445312 11.441406 C 50.449219 11.640625 51.300781 11.835938 52 12.023438 L 50.800781 16.511719 L 51.886719 11.992188 C 52.980469 12.257812 54.003906 12.53125 54.957031 12.820312 C 55.941406 13.117188 56.847656 13.429688 57.6875 13.753906 L 56.003906 18.082031 L 57.554688 13.703125 C 62.167969 15.339844 65.832031 17.664062 68.546875 20.683594 C 70.425781 22.796875 71.78125 25.125 72.617188 27.671875 C 73.449219 30.199219 73.746094 32.878906 73.519531 35.707031 C 73.3125 38.601562 72.609375 41.25 71.40625 43.65625 C 70.195312 46.082031 68.476562 48.230469 66.253906 50.109375 C 61.207031 54.21875 54.628906 56.03125 46.515625 55.558594 C 38.277344 55.035156 32 52.367188 27.6875 47.550781 Z M 14.867188 -42.941406 C 14.867188 -33.375 18.242188 -25.21875 24.996094 -18.464844 C 31.78125 -11.75 39.917969 -8.394531 49.410156 -8.394531 C 58.9375 -8.394531 67.078125 -11.753906 73.835938 -18.472656 C 80.621094 -25.261719 84.015625 -33.417969 84.015625 -42.941406 C 84.015625 -47.765625 83.175781 -52.195312 81.5 -56.230469 C 79.824219 -60.257812 77.296875 -63.9375 73.914062 -67.269531 C 67.175781 -74.039062 59.03125 -77.425781 49.472656 -77.425781 C 39.914062 -77.425781 31.796875 -74.070312 25.125 -67.363281 C 18.355469 -60.628906 14.9375 -52.476562 14.867188 -42.90625 Z M 5.574219 -42.972656 C 5.667969 -55.09375 9.988281 -65.40625 18.539062 -73.914062 C 27.027344 -82.449219 37.339844 -86.714844 49.472656 -86.714844 C 61.605469 -86.714844 71.925781 -82.4375 80.429688 -73.890625 C 84.707031 -69.679688 87.921875 -64.980469 90.078125 -59.796875 C 92.230469 -54.621094 93.304688 -49 93.304688 -42.941406 C 93.304688 -30.851562 89 -20.5 80.386719 -11.886719 C 71.820312 -3.367188 61.496094 0.894531 49.410156 0.894531 C 37.371094 0.894531 27.042969 -3.367188 18.425781 -11.894531 C 9.859375 -20.464844 5.574219 -30.8125 5.574219 -42.941406 Z M 5.574219 -42.972656 "/></g></g></g><g fill="#fefefe" fill-opacity="1"><g transform="translate(382.403691, 116.117912)"><g><path d="M 16.742188 -105.355469 L 16.742188 -66.585938 L 12.09375 -66.585938 L 8.0625 -68.890625 C 8.945312 -70.4375 9.90625 -71.9375 10.941406 -73.394531 C 11.996094 -74.871094 13.144531 -76.300781 14.394531 -77.683594 C 18.652344 -82.476562 23.382812 -86.089844 28.585938 -88.527344 C 33.835938 -90.988281 39.507812 -92.21875 45.601562 -92.21875 C 51.734375 -92.21875 57.433594 -90.984375 62.695312 -88.511719 C 67.914062 -86.058594 72.652344 -82.414062 76.910156 -77.578125 C 85.371094 -68.054688 89.667969 -56.5625 89.796875 -43.105469 L 89.796875 4.765625 L 74.402344 4.765625 L 74.402344 -43.0625 C 74.292969 -52.273438 71.375 -60.117188 65.648438 -66.59375 C 62.828125 -69.78125 59.75 -72.160156 56.417969 -73.722656 C 53.132812 -75.261719 49.546875 -76.035156 45.660156 -76.035156 C 41.769531 -76.035156 38.175781 -75.265625 34.875 -73.730469 C 31.53125 -72.175781 28.4375 -69.808594 25.597656 -66.632812 C 19.910156 -60.203125 16.980469 -52.375 16.800781 -43.152344 L 16.800781 4.765625 L 1.402344 4.765625 L 1.402344 -110 L 16.742188 -110 Z M 7.449219 -105.355469 L 12.09375 -105.355469 L 12.09375 -100.707031 L 6.046875 -100.707031 L 6.046875 -105.355469 L 10.691406 -105.355469 L 10.691406 0.121094 L 6.046875 0.121094 L 6.046875 -4.523438 L 12.15625 -4.523438 L 12.15625 0.121094 L 7.511719 0.121094 L 7.511719 -43.332031 C 7.734375 -54.832031 11.457031 -64.664062 18.675781 -72.828125 C 22.363281 -76.953125 26.457031 -80.058594 30.957031 -82.152344 C 35.5 -84.265625 40.398438 -85.324219 45.660156 -85.324219 C 50.925781 -85.324219 55.828125 -84.257812 60.363281 -82.132812 C 64.855469 -80.023438 68.9375 -76.898438 72.605469 -72.75 C 79.859375 -64.546875 83.554688 -54.652344 83.691406 -43.0625 L 83.691406 0.121094 L 79.046875 0.121094 L 79.046875 -4.523438 L 85.152344 -4.523438 L 85.152344 0.121094 L 80.507812 0.121094 L 80.507812 -43.015625 C 80.398438 -54.152344 76.875 -63.628906 69.933594 -71.441406 C 66.527344 -75.3125 62.800781 -78.199219 58.746094 -80.101562 C 54.734375 -81.984375 50.351562 -82.929688 45.601562 -82.929688 C 40.886719 -82.929688 36.53125 -81.992188 32.527344 -80.117188 C 28.476562 -78.21875 24.730469 -75.332031 21.289062 -71.457031 C 20.28125 -70.339844 19.355469 -69.1875 18.511719 -68.003906 C 17.652344 -66.800781 16.859375 -65.558594 16.128906 -64.28125 L 7.449219 -49.097656 Z M 7.449219 -105.355469 "/></g></g></g><g fill="#fefefe" fill-opacity="1"><g transform="translate(477.197402, 116.117912)"><g><path d="M 52.3125 -75.367188 L 12.761719 -75.367188 L 12.761719 -80.011719 L 17.40625 -80.011719 L 17.40625 -41.246094 C 17.40625 -32.609375 20.417969 -25.277344 26.449219 -19.25 C 32.585938 -13.183594 39.917969 -10.148438 48.441406 -10.148438 C 49.625 -10.148438 50.765625 -10.203125 51.867188 -10.308594 L 56.957031 -10.800781 L 56.957031 5.183594 L 52.761719 5.589844 C 51.363281 5.726562 49.902344 5.792969 48.382812 5.792969 C 35.457031 5.792969 24.386719 1.234375 15.175781 -7.886719 C 5.945312 -17.121094 1.375 -28.25 1.464844 -41.277344 L 1.464844 -101.714844 L 17.40625 -101.714844 L 17.40625 -86.664062 L 12.761719 -86.664062 L 12.761719 -91.3125 L 56.957031 -91.3125 L 56.957031 -75.367188 Z M 52.3125 -84.65625 L 52.3125 -80.011719 L 47.667969 -80.011719 L 47.667969 -86.664062 L 52.3125 -86.664062 L 52.3125 -82.019531 L 8.117188 -82.019531 L 8.117188 -97.066406 L 12.761719 -97.066406 L 12.761719 -92.421875 L 6.109375 -92.421875 L 6.109375 -97.066406 L 10.753906 -97.066406 L 10.753906 -41.214844 C 10.679688 -30.777344 14.335938 -21.867188 21.714844 -14.488281 C 29.113281 -7.160156 38.003906 -3.496094 48.382812 -3.496094 C 49.605469 -3.496094 50.765625 -3.550781 51.867188 -3.65625 L 52.3125 0.96875 L 47.667969 0.96875 L 47.667969 -5.683594 L 52.3125 -5.683594 L 52.761719 -1.0625 C 51.363281 -0.925781 49.921875 -0.859375 48.441406 -0.859375 C 37.375 -0.859375 27.851562 -4.800781 19.878906 -12.683594 C 12.035156 -20.523438 8.117188 -30.046875 8.117188 -41.246094 L 8.117188 -84.65625 Z M 52.3125 -84.65625 "/></g></g></g><g fill="#ffffff" fill-opacity="1"><g transform="translate(1.390611, 116.117912)"><g><path d="M 85.15625 -86.90625 L 85.15625 -43.609375 C 84.988281 -31.347656 81.054688 -20.882812 73.359375 -12.21875 C 65.660156 -3.550781 56.40625 0.78125 45.59375 0.78125 C 34.75 0.78125 25.476562 -3.570312 17.78125 -12.28125 C 10.082031 -20.945312 6.171875 -31.425781 6.046875 -43.71875 L 6.046875 -86.90625 L 12.15625 -86.90625 L 12.15625 -43.71875 C 12.28125 -33.320312 15.585938 -24.453125 22.078125 -17.109375 C 28.566406 -9.773438 36.390625 -6.109375 45.546875 -6.109375 C 54.691406 -6.109375 62.53125 -9.757812 69.0625 -17.0625 C 75.550781 -24.394531 78.878906 -33.222656 79.046875 -43.546875 L 79.046875 -86.90625 Z M 85.15625 -86.90625 "/></g></g></g><g fill="#ffffff" fill-opacity="1"><g transform="translate(96.184322, 116.117912)"><g><path d="M 77.78125 -16.390625 C 85.238281 -23.929688 88.96875 -32.960938 88.96875 -43.484375 C 88.96875 -54.003906 85.238281 -63.035156 77.78125 -70.578125 C 70.238281 -78.035156 61.207031 -81.765625 50.6875 -81.765625 C 40.15625 -81.765625 31.125 -78.035156 23.59375 -70.578125 C 16.125 -63.035156 12.390625 -54.003906 12.390625 -43.484375 C 12.390625 -32.960938 16.125 -23.929688 23.59375 -16.390625 C 31.125 -8.929688 40.15625 -5.203125 50.6875 -5.203125 C 61.207031 -5.203125 70.238281 -8.929688 77.78125 -16.390625 Z M 12.390625 -20.5 L 12.390625 30.125 L 6.109375 30.125 L 6.109375 -43.484375 C 6.066406 -55.785156 10.398438 -66.289062 19.109375 -75 C 27.816406 -83.707031 38.320312 -88.0625 50.625 -88.0625 C 62.914062 -88.0625 73.414062 -83.707031 82.125 -75 C 90.789062 -66.320312 95.164062 -55.816406 95.25 -43.484375 C 95.25 -31.179688 90.894531 -20.675781 82.1875 -11.96875 C 73.476562 -3.257812 62.976562 1.09375 50.6875 1.09375 C 38.382812 1.09375 27.878906 -3.257812 19.171875 -11.96875 C 16.546875 -14.59375 14.285156 -17.4375 12.390625 -20.5 Z M 12.390625 -20.5 "/></g></g></g><g fill="#ffffff" fill-opacity="1"><g transform="translate(198.961197, 116.117912)"><g><path d="M 52.3125 -88.171875 L 52.3125 -81.53125 C 51.0625 -81.644531 49.769531 -81.703125 48.4375 -81.703125 C 38.644531 -81.703125 30.21875 -78.21875 23.15625 -71.25 C 16.226562 -64.3125 12.765625 -55.882812 12.765625 -45.96875 L 12.765625 -0.0625 L 6.109375 -0.0625 L 6.109375 -45.96875 C 6.023438 -57.695312 10.140625 -67.710938 18.453125 -76.015625 C 26.753906 -84.242188 36.726562 -88.359375 48.375 -88.359375 C 49.75 -88.359375 51.0625 -88.296875 52.3125 -88.171875 Z M 52.3125 -88.171875 "/></g></g></g><g fill="#ffffff" fill-opacity="1"><g transform="translate(257.89115, 116.117912)"><g><path d="M 12.390625 -86.78125 L 12.390625 0 L 6.046875 0 L 6.046875 -86.78125 Z M 12.390625 -86.78125 "/></g></g></g><g fill="#ffffff" fill-opacity="1"><g transform="translate(279.929208, 116.117912)"><g><path d="M 31.140625 44.453125 C 34.609375 48.316406 39.832031 50.472656 46.8125 50.921875 C 53.707031 51.328125 59.210938 49.851562 63.328125 46.5 C 66.710938 43.644531 68.566406 39.9375 68.890625 35.375 C 69.242188 30.90625 67.972656 27.035156 65.078125 23.765625 C 62.898438 21.347656 59.875 19.453125 56 18.078125 C 55.28125 17.796875 54.484375 17.523438 53.609375 17.265625 C 52.742188 17.003906 51.804688 16.753906 50.796875 16.515625 C 50.191406 16.347656 49.4375 16.171875 48.53125 15.984375 C 47.625 15.804688 46.566406 15.597656 45.359375 15.359375 L 43.125 14.9375 L 40.515625 14.390625 L 37.984375 13.84375 C 37.015625 13.644531 36.09375 13.425781 35.21875 13.1875 C 34.351562 12.945312 33.539062 12.703125 32.78125 12.453125 C 28.945312 11.160156 25.722656 9.507812 23.109375 7.5 C 19.429688 4.675781 17.253906 1.691406 16.578125 -1.453125 C 16.003906 -4.359375 16.707031 -7.019531 18.6875 -9.4375 L 18.078125 -9.984375 L 17.234375 -10.765625 C 8.367188 -19.640625 3.9375 -30.363281 3.9375 -42.9375 C 4.007812 -55.519531 8.484375 -66.222656 17.359375 -75.046875 C 26.191406 -83.921875 36.894531 -88.359375 49.46875 -88.359375 C 58.664062 -88.359375 66.8125 -86.019531 73.90625 -81.34375 C 74.789062 -82.71875 75.675781 -83.925781 76.5625 -84.96875 C 77.445312 -86.019531 78.332031 -86.910156 79.21875 -87.640625 C 82.007812 -89.773438 85.15625 -90.554688 88.65625 -89.984375 L 87.640625 -83.703125 C 85.816406 -84.023438 84.179688 -83.539062 82.734375 -82.25 C 81.609375 -81.238281 80.378906 -79.644531 79.046875 -77.46875 C 80.097656 -76.582031 80.960938 -75.773438 81.640625 -75.046875 C 90.515625 -66.222656 94.953125 -55.519531 94.953125 -42.9375 C 94.953125 -30.394531 90.492188 -19.671875 81.578125 -10.765625 C 72.710938 -1.890625 61.988281 2.546875 49.40625 2.546875 C 39.6875 2.546875 31.082031 -0.113281 23.59375 -5.4375 C 22.945312 -4.46875 22.703125 -3.539062 22.859375 -2.65625 C 23.140625 -1.164062 24.53125 0.546875 27.03125 2.484375 C 29.164062 4.128906 31.867188 5.457031 35.140625 6.46875 C 35.828125 6.675781 36.539062 6.878906 37.28125 7.078125 C 38.03125 7.273438 38.828125 7.476562 39.671875 7.6875 C 40.191406 7.800781 40.84375 7.9375 41.625 8.09375 C 42.414062 8.257812 43.335938 8.441406 44.390625 8.640625 L 46.625 9.125 L 52.4375 10.34375 C 53.519531 10.625 54.546875 10.90625 55.515625 11.1875 C 56.484375 11.46875 57.390625 11.769531 58.234375 12.09375 C 63.160156 13.90625 67.035156 16.382812 69.859375 19.53125 C 73.921875 24.125 75.734375 29.566406 75.296875 35.859375 C 74.804688 42.191406 72.1875 47.351562 67.4375 51.34375 C 62.675781 55.375 56.445312 57.390625 48.75 57.390625 C 44.351562 57.390625 40.21875 56.664062 36.34375 55.21875 C 32.226562 53.6875 28.921875 51.53125 26.421875 48.75 C 26.097656 48.382812 25.796875 48.019531 25.515625 47.65625 C 25.234375 47.289062 24.953125 46.925781 24.671875 46.5625 L 29.578125 42.390625 C 30.015625 43.117188 30.535156 43.804688 31.140625 44.453125 Z M 10.21875 -42.9375 C 10.21875 -32.09375 14.050781 -22.84375 21.71875 -15.1875 C 29.414062 -7.5625 38.644531 -3.75 49.40625 -3.75 C 60.21875 -3.75 69.453125 -7.5625 77.109375 -15.1875 C 84.804688 -22.882812 88.65625 -32.132812 88.65625 -42.9375 C 88.65625 -53.820312 84.828125 -63.035156 77.171875 -70.578125 C 69.546875 -78.234375 60.3125 -82.0625 49.46875 -82.0625 C 38.625 -82.0625 29.410156 -78.253906 21.828125 -70.640625 C 14.171875 -63.015625 10.300781 -53.78125 10.21875 -42.9375 Z M 10.21875 -42.9375 "/></g></g></g><g fill="#ffffff" fill-opacity="1"><g transform="translate(382.403691, 116.117912)"><g><path d="M 12.09375 -105.359375 L 12.09375 -66.59375 C 12.90625 -68 13.78125 -69.363281 14.71875 -70.6875 C 15.664062 -72.019531 16.707031 -73.3125 17.84375 -74.5625 C 25.539062 -83.238281 34.789062 -87.578125 45.59375 -87.578125 C 56.488281 -87.578125 65.765625 -83.222656 73.421875 -74.515625 C 81.117188 -65.835938 85.03125 -55.351562 85.15625 -43.0625 L 85.15625 0.125 L 79.046875 0.125 L 79.046875 -43.0625 C 78.921875 -53.457031 75.613281 -62.328125 69.125 -69.671875 C 62.632812 -77.003906 54.8125 -80.671875 45.65625 -80.671875 C 36.507812 -80.671875 28.671875 -77.023438 22.140625 -69.734375 C 15.679688 -62.429688 12.351562 -53.597656 12.15625 -43.234375 L 12.15625 0.125 L 6.046875 0.125 L 6.046875 -105.359375 Z M 12.09375 -105.359375 "/></g></g></g><g fill="#ffffff" fill-opacity="1"><g transform="translate(477.197402, 116.117912)"><g><path d="M 52.3125 -80.015625 L 12.765625 -80.015625 L 12.765625 -41.25 C 12.765625 -31.332031 16.226562 -22.90625 23.15625 -15.96875 C 30.21875 -8.988281 38.644531 -5.5 48.4375 -5.5 C 49.769531 -5.5 51.0625 -5.5625 52.3125 -5.6875 L 52.3125 0.96875 C 51.0625 1.09375 49.75 1.15625 48.375 1.15625 C 36.726562 1.15625 26.753906 -2.957031 18.453125 -11.1875 C 10.140625 -19.488281 6.023438 -29.507812 6.109375 -41.25 L 6.109375 -97.0625 L 12.765625 -97.0625 L 12.765625 -86.671875 L 52.3125 -86.671875 Z M 52.3125 -80.015625 "/></g></g></g></g></g></svg>